<svg width="80" height="80" viewBox="0 0 80 80" fill="none" xmlns="http://www.w3.org/2000/svg">
<path d="M77.8407 49.6599C72.5783 70.7672 51.2001 83.6128 30.0904 78.3492C8.98918 73.0869 -3.85645 51.7074 1.40838 30.6013C6.66828 9.49156 28.0465 -3.3553 49.1501 1.90707C70.2587 7.16943 83.1031 28.5513 77.8407 49.6599Z" fill="url(#paint0_linear)"/>
<path d="M56.9555 34.5617C57.7398 29.3191 53.7481 26.5007 48.2899 24.6206L50.0605 17.5187L45.7375 16.4414L44.0138 23.3561C42.8774 23.0729 41.7101 22.8057 40.5503 22.541L42.2864 15.5808L37.9659 14.5034L36.1941 21.6028C35.2535 21.3886 34.33 21.1768 33.4337 20.9539L33.4386 20.9318L27.4769 19.4432L26.3269 24.0604C26.3269 24.0604 29.5343 24.7954 29.4666 24.841C31.2174 25.2781 31.5338 26.4367 31.4809 27.3552L29.4641 35.4458C29.5848 35.4765 29.7411 35.5209 29.9135 35.5898C29.7695 35.5541 29.6156 35.5147 29.4567 35.4765L26.6298 46.8102C26.4155 47.3421 25.8726 48.1399 24.6487 47.8371C24.6918 47.8998 21.5065 47.0527 21.5065 47.0527L19.3605 52.0011L24.9861 53.4035C26.0326 53.6658 27.0583 53.9404 28.0679 54.1989L26.2789 61.382L30.5969 62.4594L32.3686 55.3526C33.5482 55.6727 34.6932 55.9682 35.8137 56.2465L34.0481 63.32L38.371 64.3974L40.16 57.2278C47.5315 58.6228 53.0746 58.0601 55.4078 51.3929C57.2879 46.0247 55.3142 42.9281 51.4358 40.9088C54.2603 40.2575 56.3879 38.3995 56.9555 34.5617ZM47.0784 48.412C45.7425 53.7803 36.7039 50.8782 33.7735 50.1506L36.1473 40.6342C39.0777 41.3656 48.4746 42.8135 47.0784 48.412ZM48.4155 34.4841C47.1966 39.3673 39.6736 36.8863 37.2333 36.2781L39.3855 27.647C41.8259 28.2553 49.6849 29.3905 48.4155 34.4841Z" fill="white"/>
<defs>
<linearGradient id="paint0_linear" x1="0.228271" y1="0.728027" x2="0.228271" y2="79.5288" gradientUnits="userSpaceOnUse">
<stop stop-color="#F9AA4B"/>
<stop offset="1" stop-color="#F7931A"/>
</linearGradient>
</defs>
</svg>
