<svg width="112" height="67" viewBox="0 0 112 67" fill="none" xmlns="http://www.w3.org/2000/svg">
<rect x="111.531" y="66.0221" width="110.813" height="65.5301" transform="rotate(-180 111.531 66.0221)" fill="#009E19"/>
<rect x="103.875" y="60.8129" width="95.5" height="55.1116" rx="13.5" transform="rotate(-180 103.875 60.8129)" stroke="#006511" stroke-width="3"/>
<path d="M58.4922 34.0771C58.4922 33.4365 58.3125 32.9287 57.9532 32.5537C57.6016 32.1709 57 31.8193 56.1485 31.499C55.2969 31.1787 54.5625 30.8623 53.9454 30.5498C53.3282 30.2295 52.7969 29.8662 52.3516 29.46C51.9141 29.0459 51.5704 28.5615 51.3204 28.0068C51.0782 27.4521 50.9571 26.792 50.9571 26.0264C50.9571 24.7061 51.379 23.624 52.2227 22.7803C53.0665 21.9365 54.1875 21.4443 55.586 21.3037L55.586 18.7959H57.461L57.461 21.3389C58.8438 21.5342 59.9258 22.1123 60.7071 23.0732C61.4883 24.0264 61.879 25.2646 61.879 26.7881H58.4922C58.4922 25.8506 58.2969 25.1514 57.9063 24.6904C57.5235 24.2217 57.0079 23.9873 56.3594 23.9873C55.7188 23.9873 55.2227 24.1709 54.8711 24.5381C54.5196 24.8975 54.3438 25.3975 54.3438 26.0381C54.3438 26.6318 54.5157 27.1084 54.8594 27.4678C55.2032 27.8271 55.8399 28.1943 56.7696 28.5693C57.7071 28.9443 58.4766 29.2998 59.0782 29.6357C59.6797 29.9639 60.1875 30.3389 60.6016 30.7607C61.0157 31.1748 61.3321 31.6514 61.5508 32.1904C61.7696 32.7217 61.879 33.3428 61.879 34.0537C61.879 35.3818 61.4649 36.46 60.6368 37.2881C59.8086 38.1162 58.668 38.6045 57.2149 38.7529L57.2149 41.085H55.3516L55.3516 38.7646C53.75 38.5928 52.5079 38.0264 51.625 37.0654C50.75 36.0967 50.3125 34.8115 50.3125 33.21H53.6993C53.6993 34.1396 53.918 34.8545 54.3555 35.3545C54.8008 35.8467 55.4375 36.0928 56.2657 36.0928C56.9532 36.0928 57.4961 35.9131 57.8946 35.5537C58.293 35.1865 58.4922 34.6943 58.4922 34.0771Z" fill="#016C13"/>
</svg>
