<svg width="64" height="64" viewBox="0 0 64 64" fill="none" xmlns="http://www.w3.org/2000/svg">
<circle cx="32" cy="32" r="32" fill="#EAC957"/>
<circle cx="32" cy="32" r="22.5" fill="#D9D9D9"/>
<path d="M32.457 31.1133C32.457 31.168 32.4492 31.2539 32.4336 31.3711C32.4258 31.4883 32.4062 31.6211 32.375 31.7695C32.3516 31.9102 32.3203 32.0508 32.2812 32.1914C32.2422 32.332 32.1914 32.4648 32.1289 32.5898C32.0742 32.7148 32.0078 32.8164 31.9297 32.8945C31.8516 32.9648 31.7695 33 31.6836 33H23.3047C23.2031 33 23.125 32.957 23.0703 32.8711C23.0156 32.7852 22.9883 32.6562 22.9883 32.4844C22.9883 32.4297 22.9922 32.3477 23 32.2383C23.0156 32.1211 23.0352 31.9961 23.0586 31.8633C23.0898 31.7227 23.125 31.5781 23.1641 31.4297C23.2109 31.2812 23.2617 31.1484 23.3164 31.0312C23.3789 30.9141 23.4492 30.8164 23.5273 30.7383C23.6055 30.6602 23.6953 30.6211 23.7969 30.6211H26.6094L28.5547 20.8828L25.8359 22.2305C25.6797 22.3008 25.5508 22.3477 25.4492 22.3711C25.3477 22.3867 25.2695 22.3828 25.2148 22.3594C25.1602 22.3281 25.1211 22.2773 25.0977 22.207C25.082 22.1367 25.0742 22.043 25.0742 21.9258C25.0742 21.8164 25.082 21.6719 25.0977 21.4922C25.1211 21.3047 25.1602 21.1133 25.2148 20.918C25.2695 20.7148 25.3398 20.5273 25.4258 20.3555C25.5195 20.1836 25.6328 20.0625 25.7656 19.9922L29.4805 17.8828C29.5352 17.8516 29.5938 17.8281 29.6562 17.8125C29.7188 17.7891 29.7969 17.7734 29.8906 17.7656C29.9922 17.75 30.1211 17.7422 30.2773 17.7422C30.4336 17.7344 30.6328 17.7305 30.875 17.7305C31.1719 17.7305 31.4102 17.7383 31.5898 17.7539C31.7695 17.7617 31.9023 17.7812 31.9883 17.8125C32.082 17.8359 32.1367 17.8711 32.1523 17.918C32.168 17.9648 32.1719 18.0234 32.1641 18.0938L29.668 30.6211H32.1641C32.2656 30.6211 32.3398 30.6641 32.3867 30.75C32.4336 30.8281 32.457 30.9492 32.457 31.1133Z" fill="black"/>
<path d="M23.841 45.3008C23.841 45.3438 23.8332 45.3809 23.8176 45.4121C23.802 45.4395 23.7648 45.4629 23.7063 45.4824C23.6477 45.502 23.5617 45.5156 23.4484 45.5234C23.3352 45.5312 23.1809 45.5352 22.9855 45.5352C22.8215 45.5352 22.6906 45.5312 22.593 45.5234C22.4953 45.5156 22.4172 45.502 22.3586 45.4824C22.3039 45.459 22.2648 45.4316 22.2414 45.4004C22.218 45.3652 22.1984 45.3242 22.1828 45.2773L21.5031 43.584C21.4211 43.3926 21.341 43.2227 21.2629 43.0742C21.1848 42.9258 21.0969 42.8027 20.9992 42.7051C20.9055 42.6035 20.7961 42.5273 20.6711 42.4766C20.5461 42.4258 20.4016 42.4004 20.2375 42.4004H19.757V45.2891C19.757 45.3281 19.7434 45.3633 19.716 45.3945C19.6926 45.4258 19.6516 45.4512 19.593 45.4707C19.5344 45.4902 19.4563 45.5059 19.3586 45.5176C19.2609 45.5293 19.1359 45.5352 18.9836 45.5352C18.8352 45.5352 18.7102 45.5293 18.6086 45.5176C18.5109 45.5059 18.4328 45.4902 18.3742 45.4707C18.3156 45.4512 18.2746 45.4258 18.2512 45.3945C18.2277 45.3633 18.216 45.3281 18.216 45.2891V38.4043C18.216 38.2324 18.259 38.1094 18.3449 38.0352C18.4348 37.957 18.5441 37.918 18.673 37.918H20.6359C20.8352 37.918 20.9992 37.9219 21.1281 37.9297C21.257 37.9375 21.3742 37.9473 21.4797 37.959C21.7844 38.002 22.0578 38.0762 22.3 38.1816C22.5461 38.2871 22.7531 38.4258 22.9211 38.5977C23.093 38.7656 23.2238 38.9668 23.3137 39.2012C23.4035 39.4316 23.4484 39.6973 23.4484 39.998C23.4484 40.252 23.4152 40.4844 23.3488 40.6953C23.2863 40.9023 23.1926 41.0879 23.0676 41.252C22.9426 41.416 22.7883 41.5586 22.6047 41.6797C22.4211 41.8008 22.2121 41.8984 21.9777 41.9727C22.091 42.0273 22.1965 42.0938 22.2941 42.1719C22.3957 42.25 22.4895 42.3457 22.5754 42.459C22.6652 42.5684 22.7492 42.6953 22.8273 42.8398C22.9055 42.9805 22.9816 43.1406 23.0559 43.3203L23.6945 44.8145C23.7531 44.9629 23.7922 45.0723 23.8117 45.1426C23.8313 45.209 23.841 45.2617 23.841 45.3008ZM21.8547 40.1562C21.8547 39.9062 21.798 39.6953 21.6848 39.5234C21.5715 39.3516 21.3859 39.2305 21.1281 39.1602C21.05 39.1406 20.9602 39.125 20.8586 39.1133C20.7609 39.1016 20.6242 39.0957 20.4484 39.0957H19.757V41.2461H20.5422C20.7609 41.2461 20.9523 41.2207 21.1164 41.1699C21.2805 41.1152 21.4172 41.041 21.5266 40.9473C21.6359 40.8496 21.718 40.7344 21.7727 40.6016C21.8273 40.4688 21.8547 40.3203 21.8547 40.1562ZM31.2719 44.8965C31.2719 45.0098 31.266 45.1055 31.2543 45.1836C31.2465 45.2578 31.2328 45.3184 31.2133 45.3652C31.1938 45.4121 31.1684 45.4473 31.1371 45.4707C31.1098 45.4902 31.0785 45.5 31.0434 45.5H27.2348C27.1059 45.5 26.9965 45.4629 26.9066 45.3887C26.8207 45.3105 26.7777 45.1855 26.7777 45.0137V38.4043C26.7777 38.2324 26.8207 38.1094 26.9066 38.0352C26.9965 37.957 27.1059 37.918 27.2348 37.918H31.0199C31.0551 37.918 31.0863 37.9277 31.1137 37.9473C31.141 37.9668 31.1645 38.002 31.184 38.0527C31.2035 38.0996 31.2172 38.1621 31.225 38.2402C31.2367 38.3145 31.2426 38.4102 31.2426 38.5273C31.2426 38.6367 31.2367 38.7305 31.225 38.8086C31.2172 38.8828 31.2035 38.9434 31.184 38.9902C31.1645 39.0371 31.141 39.0723 31.1137 39.0957C31.0863 39.1152 31.0551 39.125 31.0199 39.125H28.3129V40.9766H30.6039C30.6391 40.9766 30.6703 40.9883 30.6977 41.0117C30.7289 41.0312 30.7543 41.0645 30.7738 41.1113C30.7934 41.1543 30.807 41.2148 30.8148 41.293C30.8266 41.3672 30.8324 41.459 30.8324 41.5684C30.8324 41.6816 30.8266 41.7754 30.8148 41.8496C30.807 41.9238 30.7934 41.9844 30.7738 42.0312C30.7543 42.0742 30.7289 42.1055 30.6977 42.125C30.6703 42.1445 30.6391 42.1543 30.6039 42.1543H28.3129V44.293H31.0434C31.0785 44.293 31.1098 44.3047 31.1371 44.3281C31.1684 44.3477 31.1938 44.3809 31.2133 44.4277C31.2328 44.4746 31.2465 44.5371 31.2543 44.6152C31.266 44.6895 31.2719 44.7832 31.2719 44.8965ZM40.4957 44.9258C40.5426 45.0664 40.5719 45.1777 40.5836 45.2598C40.5953 45.3418 40.5797 45.4043 40.5367 45.4473C40.4938 45.4863 40.4176 45.5098 40.3082 45.5176C40.1988 45.5293 40.0484 45.5352 39.857 45.5352C39.6578 45.5352 39.5016 45.5312 39.3883 45.5234C39.2789 45.5195 39.1949 45.5098 39.1363 45.4941C39.0777 45.4746 39.0367 45.4492 39.0133 45.418C38.9898 45.3867 38.9703 45.3457 38.9547 45.2949L38.4449 43.7715H35.5973L35.1168 45.2539C35.1012 45.3086 35.0797 45.3555 35.0523 45.3945C35.0289 45.4297 34.9879 45.459 34.9293 45.4824C34.8746 45.502 34.7945 45.5156 34.6891 45.5234C34.5875 45.5312 34.4527 45.5352 34.2848 45.5352C34.1051 45.5352 33.9645 45.5293 33.8629 45.5176C33.7613 45.5059 33.691 45.4785 33.652 45.4355C33.6129 45.3887 33.5992 45.3242 33.6109 45.2422C33.6227 45.1602 33.652 45.0508 33.6988 44.9141L36.0367 38.1875C36.0602 38.1211 36.0875 38.0684 36.1188 38.0293C36.15 37.9863 36.1988 37.9551 36.2652 37.9355C36.3355 37.9121 36.4313 37.8984 36.5523 37.8945C36.6734 37.8867 36.8336 37.8828 37.0328 37.8828C37.2633 37.8828 37.4469 37.8867 37.5836 37.8945C37.7203 37.8984 37.8258 37.9121 37.9 37.9355C37.9781 37.9551 38.0328 37.9863 38.0641 38.0293C38.0992 38.0723 38.1285 38.1309 38.152 38.2051L40.4957 44.9258ZM37.0152 39.3652H37.0094L35.9371 42.5879H38.0875L37.0152 39.3652ZM47.5281 44.8555C47.5281 44.9727 47.5223 45.0723 47.5105 45.1543C47.5027 45.2324 47.4891 45.2988 47.4695 45.3535C47.45 45.4043 47.4246 45.4414 47.3934 45.4648C47.366 45.4883 47.3328 45.5 47.2938 45.5H43.8191C43.6902 45.5 43.5809 45.4629 43.491 45.3887C43.4051 45.3105 43.3621 45.1855 43.3621 45.0137V38.1289C43.3621 38.0898 43.3738 38.0547 43.3973 38.0234C43.4246 37.9922 43.4676 37.9668 43.5262 37.9473C43.5848 37.9277 43.6629 37.9121 43.7605 37.9004C43.8621 37.8887 43.9871 37.8828 44.1355 37.8828C44.2879 37.8828 44.4129 37.8887 44.5105 37.9004C44.6082 37.9121 44.6863 37.9277 44.7449 37.9473C44.8035 37.9668 44.8445 37.9922 44.868 38.0234C44.8953 38.0547 44.909 38.0898 44.909 38.1289V44.2285H47.2938C47.3328 44.2285 47.366 44.2402 47.3934 44.2637C47.4246 44.2832 47.45 44.3184 47.4695 44.3691C47.4891 44.416 47.5027 44.4805 47.5105 44.5625C47.5223 44.6406 47.5281 44.7383 47.5281 44.8555Z" fill="black"/>
</svg>
