<svg width="410" height="71" viewBox="0 0 410 71" fill="none" xmlns="http://www.w3.org/2000/svg">
<path d="M0.232617 5.2H17.1126C21.326 5.2 24.8993 5.65333 27.8326 6.56C30.8193 7.41333 33.2193 9.09333 35.0326 11.6C36.846 14.1067 37.7526 17.6267 37.7526 22.16C37.7526 26 36.926 28.9867 35.2726 31.12C33.6193 33.2533 31.2726 34.6133 28.2326 35.2C31.966 35.68 34.8193 37.2533 36.7926 39.92C38.766 42.5867 39.7526 46.2133 39.7526 50.8C39.7526 63.6 33.2193 70 20.1526 70H0.232617V5.2ZM17.3526 31.12C20.3926 31.12 22.446 30.4267 23.5126 29.04C24.6326 27.6533 25.1926 25.4933 25.1926 22.56C25.1926 20 24.4993 18.08 23.1126 16.8C21.726 15.4667 19.6993 14.8 17.0326 14.8H14.5526V31.12H17.3526ZM17.5926 60C20.6326 60 22.766 59.2533 23.9926 57.76C25.2726 56.2133 25.9126 53.8133 25.9126 50.56C25.9126 46.88 25.2726 44.2933 23.9926 42.8C22.766 41.3067 20.606 40.56 17.5126 40.56H14.5526V60H17.5926ZM47.3439 5.2H61.6639V70H47.3439V5.2ZM77.1664 15.84H67.4064V5.2H101.246V15.84H91.5664V70H77.1664V15.84ZM169.771 70.96C162.731 70.96 157.718 69.12 154.731 65.44C151.798 61.7067 150.331 56.3467 150.331 49.36V26C150.331 18.8533 151.798 13.4667 154.731 9.84C157.664 6.16 162.678 4.32 169.771 4.32C176.544 4.32 181.344 5.94666 184.171 9.2C186.998 12.4533 188.411 17.0667 188.411 23.04V28.64H174.411V22.16C174.411 19.6533 174.144 17.7333 173.611 16.4C173.078 15.0667 171.798 14.4 169.771 14.4C167.744 14.4 166.411 15.12 165.771 16.56C165.131 17.9467 164.811 19.8933 164.811 22.4V52.88C164.811 55.44 165.131 57.4133 165.771 58.8C166.464 60.1333 167.798 60.8 169.771 60.8C171.744 60.8 172.998 60.1333 173.531 58.8C174.118 57.4133 174.411 55.44 174.411 52.88V46.08H188.411V51.68C188.411 57.76 186.998 62.5067 184.171 65.92C181.344 69.28 176.544 70.96 169.771 70.96ZM196.529 5.2H210.849V31.44H220.849V5.2H235.249V70H220.849V41.68H210.849V70H196.529V5.2ZM254.237 5.2H270.557L282.637 70H269.437L267.277 56.32H257.757L255.517 70H241.997L254.237 5.2ZM265.917 47.76L262.477 22.48L259.037 47.76H265.917ZM289.18 5.2H299.26L312.54 36.4V5.2H324.38V70H314.7L301.42 36.4V70H289.18V5.2ZM350.904 70.96C344.504 70.96 339.944 69.0133 337.224 65.12C334.504 61.2267 333.144 55.7067 333.144 48.56V26.8C333.144 19.4933 334.61 13.92 337.544 10.08C340.53 6.24 345.544 4.32 352.584 4.32C359.357 4.32 364.21 5.97333 367.144 9.27999C370.077 12.5867 371.544 17.2533 371.544 23.28V27.44H357.544V22.16C357.544 19.6 357.25 17.68 356.664 16.4C356.077 15.0667 354.77 14.4 352.744 14.4C350.664 14.4 349.304 15.12 348.664 16.56C348.077 18 347.784 20 347.784 22.56V52.56C347.784 55.12 348.157 57.1467 348.904 58.64C349.704 60.08 351.117 60.8 353.144 60.8C356.877 60.8 358.744 58 358.744 52.4V44.8H352.904V36.4H371.624V70H362.184L361.384 64.64C359.357 68.8533 355.864 70.96 350.904 70.96ZM380.586 5.2H409.706V14.96H394.906V31.04H406.186V40.96H394.906V60.32H409.866V70H380.586V5.2Z" fill="black"/>
<path d="M116.255 32.504L103.355 0.339995H117.889L125.543 19.174L131.735 0.339995H144.549L132.337 36.546L145.925 70H131.477L122.963 49.188L115.481 70H102.753L116.255 32.504Z" fill="white"/>
</svg>
